<mxfile host="app.diagrams.net" agent="Mozilla/5.0 (X11; Linux x86_64; rv:144.0) Gecko/20100101 Firefox/144.0" version="28.2.8">
  <diagram name="Page-1" id="lmCwY0ycS1zCL9-CEgTq">
    <mxGraphModel dx="1360" dy="1934" grid="1" gridSize="10" guides="1" tooltips="1" connect="1" arrows="1" fold="1" page="1" pageScale="1" pageWidth="827" pageHeight="1169" math="1" shadow="0">
      <root>
        <mxCell id="0" />
        <mxCell id="1" parent="0" />
        <mxCell id="yvEvuC8Xc55S80pn4x3e-9" style="edgeStyle=orthogonalEdgeStyle;shape=connector;rounded=0;orthogonalLoop=1;jettySize=auto;html=1;exitX=1;exitY=0.88;exitDx=0;exitDy=0;strokeColor=default;align=center;verticalAlign=middle;fontFamily=Helvetica;fontSize=11;fontColor=default;labelBackgroundColor=default;endArrow=none;endFill=0;" parent="1" source="yvEvuC8Xc55S80pn4x3e-1" edge="1">
          <mxGeometry relative="1" as="geometry">
            <mxPoint x="220" y="89.90697674418607" as="targetPoint" />
          </mxGeometry>
        </mxCell>
        <mxCell id="yvEvuC8Xc55S80pn4x3e-1" value="" style="html=1;shape=mxgraph.electrical.electro-mechanical.twoWaySwitch;aspect=fixed;elSwitchState=2;" parent="1" vertex="1">
          <mxGeometry x="120" y="67" width="75" height="26" as="geometry" />
        </mxCell>
        <mxCell id="yvEvuC8Xc55S80pn4x3e-3" style="edgeStyle=orthogonalEdgeStyle;rounded=0;orthogonalLoop=1;jettySize=auto;html=1;exitX=0.5;exitY=0;exitDx=0;exitDy=0;exitPerimeter=0;entryX=0;entryY=0.5;entryDx=0;entryDy=0;endArrow=none;endFill=0;" parent="1" source="yvEvuC8Xc55S80pn4x3e-2" target="yvEvuC8Xc55S80pn4x3e-1" edge="1">
          <mxGeometry relative="1" as="geometry">
            <Array as="points">
              <mxPoint x="100" y="80" />
            </Array>
          </mxGeometry>
        </mxCell>
        <mxCell id="yvEvuC8Xc55S80pn4x3e-2" value="" style="pointerEvents=1;verticalLabelPosition=bottom;shadow=0;dashed=0;align=center;html=1;verticalAlign=top;shape=mxgraph.electrical.signal_sources.protective_earth;" parent="1" vertex="1">
          <mxGeometry x="87" y="91" width="25" height="20" as="geometry" />
        </mxCell>
        <mxCell id="yvEvuC8Xc55S80pn4x3e-8" style="edgeStyle=orthogonalEdgeStyle;shape=connector;rounded=0;orthogonalLoop=1;jettySize=auto;html=1;exitX=1;exitY=0.5;exitDx=0;exitDy=0;exitPerimeter=0;strokeColor=default;align=center;verticalAlign=middle;fontFamily=Helvetica;fontSize=11;fontColor=default;labelBackgroundColor=default;endArrow=none;endFill=0;" parent="1" source="yvEvuC8Xc55S80pn4x3e-4" target="yvEvuC8Xc55S80pn4x3e-7" edge="1">
          <mxGeometry relative="1" as="geometry" />
        </mxCell>
        <mxCell id="yvEvuC8Xc55S80pn4x3e-4" value="R&lt;sub&gt;PULL-UP&lt;/sub&gt;" style="pointerEvents=1;verticalLabelPosition=bottom;shadow=0;dashed=0;align=left;html=1;verticalAlign=middle;shape=mxgraph.electrical.resistors.resistor_2;fontFamily=Helvetica;fontSize=11;fontColor=default;labelBackgroundColor=default;rotation=90;horizontal=0;spacingLeft=2;" parent="1" vertex="1">
          <mxGeometry x="170" y="20" width="100" height="20" as="geometry" />
        </mxCell>
        <mxCell id="yvEvuC8Xc55S80pn4x3e-7" value="" style="shape=waypoint;sketch=0;fillStyle=solid;size=6;pointerEvents=1;points=[];fillColor=none;resizable=0;rotatable=0;perimeter=centerPerimeter;snapToPoint=1;fontFamily=Helvetica;fontSize=11;fontColor=default;labelBackgroundColor=default;" parent="1" vertex="1">
          <mxGeometry x="210" y="80" width="20" height="20" as="geometry" />
        </mxCell>
        <mxCell id="yvEvuC8Xc55S80pn4x3e-10" value="+5V" style="verticalLabelPosition=top;verticalAlign=bottom;shape=mxgraph.electrical.signal_sources.vdd;shadow=0;dashed=0;align=center;strokeWidth=1;fontSize=24;html=1;flipV=1;fontFamily=Helvetica;fontColor=default;labelBackgroundColor=default;" parent="1" vertex="1">
          <mxGeometry x="200" y="-40" width="40" height="20" as="geometry" />
        </mxCell>
        <mxCell id="yvEvuC8Xc55S80pn4x3e-11" value="" style="edgeStyle=none;orthogonalLoop=1;jettySize=auto;html=1;rounded=0;strokeColor=default;align=center;verticalAlign=middle;fontFamily=Helvetica;fontSize=11;fontColor=default;labelBackgroundColor=default;endArrow=classic;endFill=1;" parent="1" edge="1">
          <mxGeometry width="80" relative="1" as="geometry">
            <mxPoint x="220" y="89.93" as="sourcePoint" />
            <mxPoint x="280" y="90" as="targetPoint" />
            <Array as="points" />
          </mxGeometry>
        </mxCell>
        <mxCell id="yvEvuC8Xc55S80pn4x3e-12" value="PB&lt;sub&gt;1&lt;/sub&gt; ou PB&lt;sub&gt;2&lt;/sub&gt;" style="text;html=1;whiteSpace=wrap;strokeColor=none;fillColor=none;align=center;verticalAlign=middle;rounded=0;fontFamily=Helvetica;fontSize=11;fontColor=default;labelBackgroundColor=default;" parent="1" vertex="1">
          <mxGeometry x="120" y="37" width="70" height="30" as="geometry" />
        </mxCell>
        <mxCell id="yvEvuC8Xc55S80pn4x3e-13" value="&lt;svg style=&quot;vertical-align: -0.05ex;&quot; xmlns=&quot;http://www.w3.org/2000/svg&quot; width=&quot;6.333ex&quot; height=&quot;1.643ex&quot; role=&quot;img&quot; viewBox=&quot;0 -704 2799 726&quot; xmlns:xlink=&quot;http://www.w3.org/1999/xlink&quot;&gt;&lt;defs&gt;&lt;path id=&quot;MJX-1-TEX-N-34&quot; d=&quot;M462 0Q444 3 333 3Q217 3 199 0H190V46H221Q241 46 248 46T265 48T279 53T286 61Q287 63 287 115V165H28V211L179 442Q332 674 334 675Q336 677 355 677H373L379 671V211H471V165H379V114Q379 73 379 66T385 54Q393 47 442 46H471V0H462ZM293 211V545L74 212L183 211H293Z&quot;&gt;&lt;/path&gt;&lt;path id=&quot;MJX-1-TEX-N-2E&quot; d=&quot;M78 60Q78 84 95 102T138 120Q162 120 180 104T199 61Q199 36 182 18T139 0T96 17T78 60Z&quot;&gt;&lt;/path&gt;&lt;path id=&quot;MJX-1-TEX-N-37&quot; d=&quot;M55 458Q56 460 72 567L88 674Q88 676 108 676H128V672Q128 662 143 655T195 646T364 644H485V605L417 512Q408 500 387 472T360 435T339 403T319 367T305 330T292 284T284 230T278 162T275 80Q275 66 275 52T274 28V19Q270 2 255 -10T221 -22Q210 -22 200 -19T179 0T168 40Q168 198 265 368Q285 400 349 489L395 552H302Q128 552 119 546Q113 543 108 522T98 479L95 458V455H55V458Z&quot;&gt;&lt;/path&gt;&lt;path id=&quot;MJX-1-TEX-I-1D458&quot; d=&quot;M121 647Q121 657 125 670T137 683Q138 683 209 688T282 694Q294 694 294 686Q294 679 244 477Q194 279 194 272Q213 282 223 291Q247 309 292 354T362 415Q402 442 438 442Q468 442 485 423T503 369Q503 344 496 327T477 302T456 291T438 288Q418 288 406 299T394 328Q394 353 410 369T442 390L458 393Q446 405 434 405H430Q398 402 367 380T294 316T228 255Q230 254 243 252T267 246T293 238T320 224T342 206T359 180T365 147Q365 130 360 106T354 66Q354 26 381 26Q429 26 459 145Q461 153 479 153H483Q499 153 499 144Q499 139 496 130Q455 -11 378 -11Q333 -11 305 15T277 90Q277 108 280 121T283 145Q283 167 269 183T234 206T200 217T182 220H180Q168 178 159 139T145 81T136 44T129 20T122 7T111 -2Q98 -11 83 -11Q66 -11 57 -1T48 16Q48 26 85 176T158 471L195 616Q196 629 188 632T149 637H144Q134 637 131 637T124 640T121 647Z&quot;&gt;&lt;/path&gt;&lt;path id=&quot;MJX-1-TEX-N-3A9&quot; d=&quot;M55 454Q55 503 75 546T127 617T197 665T272 695T337 704H352Q396 704 404 703Q527 687 596 615T666 454Q666 392 635 330T559 200T499 83V80H543Q589 81 600 83T617 93Q622 102 629 135T636 172L637 177H677V175L660 89Q645 3 644 2V0H552H488Q461 0 456 3T451 20Q451 89 499 235T548 455Q548 512 530 555T483 622T424 656T361 668Q332 668 303 658T243 626T193 560T174 456Q174 380 222 233T270 20Q270 7 263 0H77V2Q76 3 61 89L44 175V177H84L85 172Q85 171 88 155T96 119T104 93Q109 86 120 84T178 80H222V83Q206 132 162 199T87 329T55 454Z&quot;&gt;&lt;/path&gt;&lt;/defs&gt;&lt;g stroke=&quot;currentColor&quot; fill=&quot;currentColor&quot; stroke-width=&quot;0&quot; transform=&quot;scale(1,-1)&quot;&gt;&lt;g data-mml-node=&quot;math&quot;&gt;&lt;g data-mml-node=&quot;mn&quot;&gt;&lt;use data-c=&quot;34&quot; xlink:href=&quot;#MJX-1-TEX-N-34&quot;&gt;&lt;/use&gt;&lt;use data-c=&quot;2E&quot; xlink:href=&quot;#MJX-1-TEX-N-2E&quot; transform=&quot;translate(500,0)&quot;&gt;&lt;/use&gt;&lt;use data-c=&quot;37&quot; xlink:href=&quot;#MJX-1-TEX-N-37&quot; transform=&quot;translate(778,0)&quot;&gt;&lt;/use&gt;&lt;/g&gt;&lt;g data-mml-node=&quot;mstyle&quot; transform=&quot;translate(1278,0)&quot;&gt;&lt;g data-mml-node=&quot;mspace&quot;&gt;&lt;/g&gt;&lt;/g&gt;&lt;g data-mml-node=&quot;mi&quot; transform=&quot;translate(1556,0)&quot;&gt;&lt;use data-c=&quot;1D458&quot; xlink:href=&quot;#MJX-1-TEX-I-1D458&quot;&gt;&lt;/use&gt;&lt;/g&gt;&lt;g data-mml-node=&quot;mi&quot; transform=&quot;translate(2077,0)&quot;&gt;&lt;use data-c=&quot;3A9&quot; xlink:href=&quot;#MJX-1-TEX-N-3A9&quot;&gt;&lt;/use&gt;&lt;/g&gt;&lt;/g&gt;&lt;/g&gt;&lt;/svg&gt;" style="text;html=1;whiteSpace=wrap;strokeColor=none;fillColor=none;align=left;verticalAlign=middle;rounded=0;fontFamily=Helvetica;fontSize=11;fontColor=default;labelBackgroundColor=default;spacingLeft=2;" parent="1" vertex="1">
          <mxGeometry x="230" y="42" width="60" height="20" as="geometry" />
        </mxCell>
        <mxCell id="yvEvuC8Xc55S80pn4x3e-14" value="$$\bar S\; ou\; \bar R$$" style="text;html=1;strokeColor=none;fillColor=none;align=left;verticalAlign=middle;rounded=0;fontFamily=Helvetica;fontSize=11;fontColor=default;labelBackgroundColor=default;convertToSvg=0;whiteSpace=wrap;" parent="1" vertex="1">
          <mxGeometry x="280" y="80" width="60" height="20" as="geometry" />
        </mxCell>
      </root>
    </mxGraphModel>
  </diagram>
</mxfile>
